<?xml version="1.0" standalone="no"?><!DOCTYPE svg PUBLIC "-//W3C//DTD SVG 1.1//EN" "http://www.w3.org/Graphics/SVG/1.1/DTD/svg11.dtd"><svg t="1608294489262" class="icon" viewBox="0 0 1024 1024" version="1.1" xmlns="http://www.w3.org/2000/svg" p-id="8166" xmlns:xlink="http://www.w3.org/1999/xlink" width="32" height="32"><defs><style type="text/css"></style></defs><path d="M413.54568 847.16094H605.198483v176.83906h-185.17179zM188.561955 344.41953A407.377939 407.377939 0 0 1 211.708429 203.688969a299.9783 299.9783 0 0 1 67.587703-108.325497A304.607595 304.607595 0 0 1 386.69577 25.924051 380.528029 380.528029 0 0 1 527.426331 0.925859a370.34358 370.34358 0 0 1 120.361664 19.443038 290.719711 290.719711 0 0 1 97.215189 54.625678 253.685353 253.685353 0 0 1 65.735986 92.585895 294.423146 294.423146 0 0 1 24.072333 121.287523 304.607595 304.607595 0 0 1-10.184449 85.179023 222.206148 222.206148 0 0 1-27.775768 62.03255 255.537071 255.537071 0 0 1-39.811935 46.292948l-46.292948 39.811934-49.070524 43.515371a253.685353 253.685353 0 0 0-39.811935 49.070525 208.318264 208.318264 0 0 0-25.924051 61.10669 347.197107 347.197107 0 0 0-9.258589 86.104883H433.914577a740.687161 740.687161 0 0 1 6.481012-105.547921 299.052441 299.052441 0 0 1 20.368897-75.920434 237.019892 237.019892 0 0 1 35.182641-58.329114 396.267631 396.267631 0 0 1 49.070524-49.070524l42.589512-37.034358a250.907776 250.907776 0 0 0 37.034358-37.034358 161.099458 161.099458 0 0 0 24.998191-46.292948 178.690778 178.690778 0 0 0 9.25859-61.10669 163.877034 163.877034 0 0 0-14.813743-73.142858 150.915009 150.915009 0 0 0-38.886076-49.070524 139.804702 139.804702 0 0 0-45.367089-26.84991 129.620253 129.620253 0 0 0-42.589512-8.33273 149.063291 149.063291 0 0 0-128.694394 57.403255 254.611212 254.611212 0 0 0-41.663653 152.766727z" p-id="8167"></path></svg>